<svg width="32" height="32" viewBox="0 0 32 32" fill="none" xmlns="http://www.w3.org/2000/svg">
  <defs>
    <linearGradient id="fheGrad" x1="0%" y1="0%" x2="100%" y2="100%">
      <stop offset="0%" style="stop-color:#3B82F6;stop-opacity:1" />
      <stop offset="50%" style="stop-color:#8B5CF6;stop-opacity:1" />
      <stop offset="100%" style="stop-color:#EC4899;stop-opacity:1" />
    </linearGradient>
    <filter id="fheGlow">
      <feGaussianBlur stdDeviation="1.5" result="coloredBlur"/>
      <feMerge> 
        <feMergeNode in="coloredBlur"/>
        <feMergeNode in="SourceGraphic"/>
      </feMerge>
    </filter>
  </defs>
  
  <!-- Background circle with gradient -->
  <circle cx="16" cy="16" r="15" fill="url(#fheGrad)" filter="url(#fheGlow)"/>
  
  <!-- FHE Logo - Simplified and clean -->
  <g transform="translate(6, 6)">
    <!-- Main FHE symbol - stylized "F" -->
    <path d="M4 2L4 18L6 18L6 10L14 10L14 8L6 8L6 2L4 2Z" fill="white" opacity="0.95"/>
    
    <!-- H for Homomorphic -->
    <path d="M16 2L16 18L18 18L18 10L26 10L26 8L18 8L18 2L16 2Z" fill="white" opacity="0.95"/>
    <rect x="20" y="2" width="2" height="18" fill="white" opacity="0.95"/>
    
    <!-- E for Encryption -->
    <path d="M28 2L28 18L30 18L30 2L28 2Z" fill="white" opacity="0.95"/>
    <rect x="28" y="2" width="8" height="2" fill="white" opacity="0.95"/>
    <rect x="28" y="8" width="6" height="2" fill="white" opacity="0.95"/>
    <rect x="28" y="16" width="8" height="2" fill="white" opacity="0.95"/>
  </g>
  
  <!-- Subtle encryption dots -->
  <circle cx="8" cy="8" r="1" fill="white" opacity="0.4"/>
  <circle cx="24" cy="8" r="1" fill="white" opacity="0.4"/>
  <circle cx="8" cy="24" r="1" fill="white" opacity="0.4"/>
  <circle cx="24" cy="24" r="1" fill="white" opacity="0.4"/>
</svg>
