<svg width="40" height="40" viewBox="0 0 40 40" fill="none" xmlns="http://www.w3.org/2000/svg">
  <defs>
    <linearGradient id="fheGrad" x1="0%" y1="0%" x2="100%" y2="100%">
      <stop offset="0%" style="stop-color:#3B82F6;stop-opacity:1" />
      <stop offset="50%" style="stop-color:#8B5CF6;stop-opacity:1" />
      <stop offset="100%" style="stop-color:#EC4899;stop-opacity:1" />
    </linearGradient>
    <filter id="fheGlow">
      <feGaussianBlur stdDeviation="2" result="coloredBlur"/>
      <feMerge> 
        <feMergeNode in="coloredBlur"/>
        <feMergeNode in="SourceGraphic"/>
      </feMerge>
    </filter>
  </defs>
  
  <!-- Background circle with gradient -->
  <circle cx="20" cy="20" r="19" fill="url(#fheGrad)" filter="url(#fheGlow)"/>
  
  <!-- FHE Logo - Simplified and clean -->
  <g transform="translate(8, 8)">
    <!-- Main FHE symbol - stylized "F" -->
    <path d="M5 2L5 22L7 22L7 12L17 12L17 10L7 10L7 2L5 2Z" fill="white" opacity="0.95"/>
    
    <!-- H for Homomorphic -->
    <path d="M19 2L19 22L21 22L21 12L31 12L31 10L21 10L21 2L19 2Z" fill="white" opacity="0.95"/>
    <rect x="25" y="2" width="2" height="22" fill="white" opacity="0.95"/>
    
    <!-- E for Encryption -->
    <path d="M33 2L33 22L35 22L35 2L33 2Z" fill="white" opacity="0.95"/>
    <rect x="33" y="2" width="10" height="2" fill="white" opacity="0.95"/>
    <rect x="33" y="10" width="8" height="2" fill="white" opacity="0.95"/>
    <rect x="33" y="20" width="10" height="2" fill="white" opacity="0.95"/>
  </g>
  
  <!-- Subtle encryption dots -->
  <circle cx="10" cy="10" r="1.5" fill="white" opacity="0.4"/>
  <circle cx="30" cy="10" r="1.5" fill="white" opacity="0.4"/>
  <circle cx="10" cy="30" r="1.5" fill="white" opacity="0.4"/>
  <circle cx="30" cy="30" r="1.5" fill="white" opacity="0.4"/>
</svg>
